<?xml version="1.0" encoding="UTF-8" standalone="no"?><!DOCTYPE svg PUBLIC "-//W3C//DTD SVG 1.1//EN" "http://www.w3.org/Graphics/SVG/1.1/DTD/svg11.dtd"><svg width="100%" height="100%" viewBox="0 0 32 32" version="1.1" xmlns="http://www.w3.org/2000/svg" xmlns:xlink="http://www.w3.org/1999/xlink" xml:space="preserve" xmlns:serif="http://www.serif.com/" style="fill-rule:evenodd;clip-rule:evenodd;stroke-linejoin:round;stroke-miterlimit:2;"><g id="EXT"><g><g><path d="M17.144,6.683l0.903,-0c0.331,-0 0.602,-0.271 0.602,-0.602c0,-0.331 -0.271,-0.602 -0.602,-0.602l-0.903,-0c-0.331,-0 -0.602,0.271 -0.602,0.602c-0,0.331 0.271,0.602 0.602,0.602Z" style="fill-rule:nonzero;"/><path d="M16.542,11.499c-1.656,0 -3.011,1.355 -3.011,3.011c0,1.656 1.355,3.01 3.011,3.01c1.656,0 3.01,-1.354 3.01,-3.01c0,-1.656 -1.354,-3.011 -3.01,-3.011Zm-0,4.817c-0.994,0 -1.806,-0.813 -1.806,-1.806c-0,-0.994 0.812,-1.806 1.806,-1.806c0.993,-0 1.806,0.812 1.806,1.806c-0,0.993 -0.813,1.806 -1.806,1.806Z" style="fill-rule:nonzero;"/><path d="M27.409,31.278l-0.903,-4.937c-0.241,-1.295 -1.024,-2.349 -2.137,-2.95l-1.716,-0.934c0.542,-2.047 0.843,-4.184 0.843,-6.322l-0,-0.812c-0,-4.576 -1.415,-8.941 -4.094,-12.704l-1.355,-1.866c-0.331,-0.482 -0.873,-0.753 -1.475,-0.753c-0.572,0 -1.114,0.271 -1.475,0.753l-1.355,1.866c-2.649,3.703 -4.124,8.218 -4.124,12.734l0,0.813c0,2.167 0.301,4.335 0.873,6.442l-1.445,0.783c-1.114,0.601 -1.897,1.655 -2.137,2.95l-0.903,4.906c-0.031,0.241 0.06,0.512 0.3,0.633c0.091,0.06 0.211,0.09 0.302,0.09c0.15,-0 0.271,-0.06 0.391,-0.151l2.529,-2.167c0.963,-0.843 2.227,-1.294 3.522,-1.294l1.987,-0l-0,1.956c-0,0.903 0.752,1.656 1.655,1.656c0.903,-0 1.656,-0.753 1.656,-1.656l-0,-1.987l0.331,0c0.09,0.031 0.181,0.061 0.271,0.061l1.415,-0c1.295,-0 2.559,0.451 3.522,1.294l2.529,2.167c0.12,0.091 0.24,0.151 0.391,0.151c0.091,0 0.211,-0.03 0.301,-0.09c0.211,-0.121 0.331,-0.362 0.301,-0.632Zm-18.664,-2.529l-1.234,1.084l0.572,-3.252c0.18,-0.933 0.722,-1.685 1.535,-2.107l1.204,-0.662l0.722,2.408c0.121,0.391 0.302,0.722 0.542,1.024c-1.234,0.18 -2.408,0.692 -3.341,1.505Zm8.399,1.565c0,0.241 -0.211,0.452 -0.452,0.452c-0.241,-0 -0.451,-0.211 -0.451,-0.452l-0,-6.322c-0,-0.24 0.21,-0.451 0.451,-0.451c0.241,-0 0.452,0.211 0.452,0.451l0,6.322Zm1.505,-3.191l-0.301,0l-0,-3.131c-0,-0.903 -0.753,-1.655 -1.656,-1.655c-0.903,-0 -1.655,0.752 -1.655,1.655l-0,3.161l-0.602,0c-0.813,0 -1.506,-0.542 -1.747,-1.294l-0.902,-3.041c-0.633,-2.167 -0.964,-4.395 -0.964,-6.652l0,-0.813c0,-2.98 0.663,-5.961 1.927,-8.67l2.288,-0c0.331,-0 0.602,-0.271 0.602,-0.602c-0,-0.331 -0.271,-0.602 -0.602,-0.602l-1.656,-0c0.391,-0.753 0.843,-1.445 1.355,-2.138l1.354,-1.866c0.121,-0.151 0.301,-0.241 0.482,-0.241c0.211,0 0.361,0.09 0.482,0.241l1.354,1.866c2.529,3.523 3.853,7.677 3.853,11.982l0,0.812c0,2.258 -0.331,4.516 -0.963,6.653l-0.903,3.041c-0.241,0.782 -0.933,1.294 -1.746,1.294Zm6.021,1.656c-1.024,-0.873 -2.318,-1.415 -3.673,-1.565c0.241,-0.302 0.421,-0.633 0.542,-1.024l0.753,-2.529l1.475,0.813c0.782,0.422 1.354,1.204 1.535,2.107l0.602,3.252l-1.234,-1.054Z" style="fill-rule:nonzero;"/></g></g></g></svg>